# xmcd
#
# Track frame offsets:
#	150
#	18332
#	44595
#	65525
#	86455
#	101852
#	127277
#	148687
#	173687
#	196470
#	220710
#	237097
#	260545
#
# Disc length: 3770 seconds
#
# Revision: 1
# Processed by: cddbd v1.4PL0 Copyright (c) Steve Scherf et al.
# Submitted via: EasyCDDAExtractor 5.0.6
#
DISCID=bf0eb80d
DTITLE=Dave Specter - Left Turn on Blue
DYEAR=1900
DGENRE=Blues
TTITLE0=Get Back Home
TTITLE1=Stop! Hold It
TTITLE2=Killer Jack
TTITLE3=Till the End of Time
TTITLE4=Party Girl
TTITLE5=Juice Head Baby
TTITLE6=Left Turn on Blue
TTITLE7=Unleavened Soul
TTITLE8=Hopeless
TTITLE9=What's the Matter?
TTITLE10=Tremble
TTITLE11=Roll Baby Roll
TTITLE12=When Will the Blues Leave?
EXTD=
EXTT0=
EXTT1=
EXTT2=
EXTT3=
EXTT4=
EXTT5=
EXTT6=
EXTT7=
EXTT8=
EXTT9=
EXTT10=
EXTT11=
EXTT12=
PLAYORDER=
